<?xml version="1.0" encoding="UTF-8" standalone="no"?>
<!-- Created with Inkscape (http://www.inkscape.org/) -->
<svg xmlns:svg="http://www.w3.org/2000/svg" xmlns="http://www.w3.org/2000/svg" xmlns:xlink="http://www.w3.org/1999/xlink" version="1.0" width="629" height="199" id="svg3013">
  <defs id="defs3015">
    <linearGradient id="linearGradient9064">
      <stop style="stop-color:#d40000;stop-opacity:1" offset="0" id="stop9066"/>
      <stop style="stop-color:#d40000;stop-opacity:0" offset="1" id="stop9068"/>
    </linearGradient>
    <linearGradient x1="38" y1="57.362183" x2="25" y2="48.862183" id="linearGradient9099" xlink:href="#linearGradient9064" gradientUnits="userSpaceOnUse" gradientTransform="translate(117.30706,-25.892033)"/>
  </defs>
  <g transform="translate(32.5,4.5)" id="layer1">
    <g transform="translate(23.192941,31.892033)" id="g117">
      <path d="M 213.80706,0.982967 C 208.99887,2.533531 201.45354,-1.124823 198.87483,4.834554 C 197.68432,9.624174 198.97463,14.621365 198.8075,19.498724 C 199.03767,30.958672 198.67745,42.423819 197.36859,53.813928 C 196.16145,68.546799 196.85112,83.36146 195.57777,98.09667 C 194.9978,107.45483 195.14717,116.85082 195.60141,126.21229 C 197.92899,132.50674 205.7291,129.45988 210.70958,130.87511 C 216.33291,131.50668 220.97598,125.77209 219.87924,120.39196 C 218.25104,89.04633 220.71052,57.599096 217.90646,26.297193 C 217.34222,19.014482 217.67246,11.709164 217.82063,4.429115 C 217.8541,2.256314 216.08513,0.329701 213.80706,0.982967 z " style="fill:#da0000;fill-opacity:1;fill-rule:evenodd;stroke:#000000;stroke-width:1px;stroke-linecap:butt;stroke-linejoin:miter;stroke-opacity:1" id="path3038"/>
      <path d="M 211.38656,37.137477 C 212.65794,41.495492 212.20292,47.373258 216.64493,49.983712 C 219.77808,52.862539 225.53,50.429838 228.63958,54.218132 C 231.94446,57.204097 236.38554,56.181408 240.35709,57.029379 C 245.03206,57.494027 249.22109,54.652423 253.88301,54.959431 C 258.10094,53.800033 263.01383,53.946479 266.43923,50.881541 C 269.83743,48.882892 272.65249,46.083546 276.04207,44.07536 C 279.13364,41.451438 283.59346,40.748237 286.86646,38.060758 C 290.29036,35.490965 294.31745,34.167045 298.41024,33.280672 C 298.00326,35.516969 301.06989,29.23634 297.62399,38.929239 C 293.5583,40.328832 289.38636,41.678622 286.23469,44.850117 C 283.04377,47.375632 279.02009,48.581279 275.96337,50.975481 C 272.37863,53.118489 269.36037,56.041252 265.76498,58.172002 C 262.04666,60.866864 257.08182,60.882107 252.73248,61.930704 C 247.99094,61.759897 243.65974,64.696897 238.8431,63.839979 C 234.67591,62.910804 230.09543,63.791491 226.46584,60.978417 C 222.59242,57.503425 217.27834,56.944628 212.54207,55.38561 C 209.63192,52.378916 206.3832,49.457255 206.1653,44.916036 C 206.04808,42.351532 202.41696,36.362684 206.95304,37.306258 C 208.43088,37.249998 209.90872,37.193738 211.38656,37.137477 z " style="fill:#d40000;fill-opacity:1;stroke:#a20000;stroke-opacity:1" id="path8009"/>
      <path d="M 299.80035,32.059864 C 302.9495,32.688281 306.18408,32.465455 309.37399,32.510605 C 311.40477,31.822948 313.47016,32.560029 315.53125,32.40411 C 318.15343,32.110617 320.7691,31.777296 323.34158,31.159979 C 325.89067,30.997793 328.1351,29.547399 330.24055,28.209544 C 332.11749,27.120201 333.68883,25.577707 335.66051,24.645926 C 337.93574,23.559339 339.73735,21.65755 342.19488,20.930586 C 343.2394,20.481022 344.78812,19.734955 344.25369,21.432901 C 344.20328,22.349829 344.15287,23.266757 344.10245,24.183685 C 341.78031,24.726564 339.65039,25.857018 337.76926,27.301214 C 335.89263,28.402066 333.93926,29.375238 332.25304,30.766687 C 329.32121,32.667565 326.32683,34.932321 322.7174,35.160075 C 320.01167,35.823095 317.24193,36.119369 314.47732,36.378835 C 312.40877,36.071719 310.37413,36.164381 308.31428,36.4327 C 305.34393,36.435886 302.35211,36.494258 299.41186,36.000053 C 299.54136,34.686657 299.67085,33.37326 299.80035,32.059864 z " style="fill:#d40000;fill-opacity:1;stroke:#a20000;stroke-opacity:1" id="path8012"/>
      <path d="M 298.76147,35.496212 C 306.24571,36.632538 313.69456,38.035358 321.20569,38.960273 C 326.27448,40.963691 331.64281,41.504635 336.90451,42.638743 C 342.29976,43.533587 344.27304,53.043915 350.2887,47.946457 C 351.78835,46.705509 357.06633,44.292231 353.66824,47.752238 C 350.70818,51.15308 345.45714,54.211986 341.10637,51.476565 C 338.99674,45.06719 331.08232,46.019305 325.84178,44.392657 C 320.10281,42.292683 314.03252,42.048777 308.08578,40.994047 C 304.57465,39.285033 296.3089,41.966924 298.76147,35.496212 z " style="fill:#d40000;fill-opacity:1;stroke:#a20000;stroke-opacity:1" id="path9147"/>
      <path d="M 184.99764,54.069801 C 183.05924,57.771898 181.02765,61.490867 179.0679,65.19248 C 177.621,68.823004 176.48611,73.009041 177.4615,76.89388 C 178.24898,80.58789 177.11562,85.57342 181.04075,87.77059 C 183.64516,90.70328 185.2316,94.28134 188.40756,96.78151 C 190.04156,100.61454 194.50279,100.12084 197.51913,101.6959 C 199.98911,104.80629 204.43743,104.97891 207.24487,107.82538 C 210.45555,110.16488 214.74787,110.26465 218.02159,112.55835 C 224.13455,116.13866 231.46769,113.58353 238.0636,115.06048 C 239.58015,115.23594 245.90685,114.33217 244.4899,116.62556 C 241.94833,115.03718 239.02995,117.276 236.22202,116.73188 C 229.71808,115.54352 222.37255,117.9478 216.53826,113.93724 C 212.92975,111.74872 208.30741,111.64431 205.15088,108.6824 C 202.05087,106.09121 197.53797,106.45599 194.75345,103.37264 C 190.74554,102.9631 187.20349,100.88345 185.09869,97.4354 C 182.44418,95.24373 181.0148,92.28824 179.15032,89.51126 C 176.18641,87.50692 174.97456,84.22817 174.89866,80.77868 C 174.49674,76.34171 173.65136,71.941119 175.10866,67.563344 C 176.04349,63.437441 178.7912,60.084172 180.4486,56.244792 C 181.75319,54.151325 182.3102,51.347881 184.62457,53.83093 C 184.74893,53.910554 184.87328,53.990177 184.99764,54.069801 z " style="fill:#d40000;fill-opacity:1;stroke:#a20000;stroke-opacity:1" id="path9159"/>
      <path d="M 246.424,0.41 C 247.041,5.921 248.315,10.421 249.393,15.861 C 250.233,20.097 250.659,27.067 253.664,30.366 C 257.919,27.67 260.503,22.844 264.274,19.532 C 268.056,16.211 272.216,13.666 276.651,11.443 C 290.399,4.548 316.005,11.401 323.941,24.915 C 332.559,39.591 325.905,61.919 315.648,73.969 C 310.728,79.749 304.177,85.619 298.26,90.32 C 290.811,96.239 278.885,100.947 269.723,103.344 C 265.91,104.342 262.393,105.657 258.654,106.818 C 250.016,109.503 241.096,109.434 232.067,109.444 C 226.547,109.45 222.07,108.079 216.75,107.055 C 211.533,106.051 206.167,105.166 201.671,102.11 C 196.16,98.362 193.169,92.322 185.555,95.954 C 179.949,98.631 175.853,104.149 174.073,110.014 C 172.144,116.371 174.11,121.698 175.56,127.833 C 176.523,131.907 178.738,134.614 181.168,137.819 C 183.025,140.268 184.341,141.743 183.011,144.809 C 181.525,148.239 178.047,150.571 174.449,151.495 C 170.685,152.464 168.463,150.501 166.008,147.839 C 158.736,139.954 156.506,127.009 157.355,116.653 C 157.965,109.209 159.535,99.373 162.139,92.346 C 163.066,89.846 163.893,87.255 165.004,84.832 C 166.632,81.277 169.076,78.783 171.653,75.969 C 176.635,70.53 184.499,69.593 191.608,70.437 C 193.534,70.665 193.728,70.768 195.373,69.642 C 198.622,67.418 201.836,66.263 205.774,67.069 C 209.889,67.91 213.651,69.982 218.001,69.469 C 230.144,68.038 234.904,54.608 236.279,44.148 C 236.985,38.782 237.335,32.457 236.29,27.116 C 234.522,18.078 229.767,10.972 229.659,1.491 C 236.35096,0.31973 241.24882,0.26689 246.424,0.41 z " style="opacity:0.68000034;fill:#f26522;stroke:#c0272d;stroke-width:0.60000002" id="path119"/>
      <path d="M 210.58186,38.45605 C 208.96392,40.68408 208.63711,43.650777 206.8145,45.706286 C 205.23873,47.455463 203.74624,49.318244 201.67854,50.521599 C 199.99791,52.037774 197.72197,52.631966 196.04101,54.090699 C 194.42536,55.885963 192.02567,54.937771 189.9705,55.298059 C 187.35164,55.81921 184.60271,56.890433 181.93762,56.085677 C 180.08537,55.198527 178.4339,53.949192 177.05915,52.426668 C 174.9887,49.738332 172.31856,47.568746 169.86378,45.279484 C 168.72681,42.822753 166.34448,41.37552 164.22349,39.853136 C 163.02981,38.426918 161.35219,37.520737 160.02273,36.263153 C 158.8084,35.952368 158.51946,35.160247 158.76914,34.021898 C 158.80332,33.216031 158.8375,32.410164 158.87168,31.604297 C 160.79275,32.068593 162.23887,33.460678 163.90831,34.435384 C 165.19047,35.805652 167.08213,36.132078 168.43705,37.31721 C 169.7348,38.86857 171.1504,40.005301 172.84908,40.973 C 174.91492,42.213821 176.47604,44.130532 178.02872,45.940905 C 179.06801,47.204044 180.43724,48.233876 181.90274,48.97259 C 183.72273,50.065077 185.82824,49.095492 187.76812,49.043577 C 189.55325,49.310549 191.31396,49.634531 192.66454,48.071427 C 194.40087,47.231459 196.15589,46.436288 197.82517,45.471027 C 199.29455,44.231334 201.14093,43.204145 202.03972,41.3902 C 202.95735,40.207695 202.98148,37.504369 204.96569,38.152244 C 206.83775,38.253513 208.7098,38.354782 210.58186,38.45605 z " style="fill:url(#linearGradient9099);fill-opacity:1;stroke:#a20000;stroke-opacity:1" id="path8026"/>
      <path d="M 181.9496,53.09584 C 182.89267,50.525484 183.32602,47.617809 182.46097,44.965853 C 182.34926,42.680082 183.20956,40.266708 184.60125,38.490031 C 186.6444,37.242537 187.41504,34.372782 189.97304,33.897983 C 191.82952,33.24761 194.06014,33.399491 195.65613,34.614769 C 197.47649,35.125976 197.70316,36.833063 197.53139,38.279089 C 198.04865,40.083106 198.13858,42.247544 196.63722,43.615455 C 195.64865,45.361126 195.04071,47.3003 194.97988,49.310161 C 194.2983,51.328667 192.55498,52.918537 192.46668,55.164176 C 192.14897,58.447718 193.72769,61.689886 192.83951,64.958365 C 192.15867,66.942016 192.85057,68.850802 194.48898,69.958669 C 195.21626,71.826361 194.03202,73.677904 193.53583,75.44857 C 192.79658,77.49549 190.66174,77.43317 189.02587,78.14468 C 188.3321,78.98795 187.26232,78.46476 186.34403,78.48522 C 187.82251,77.0378 190.41995,77.32126 191.21102,75.0788 C 191.60496,73.39862 192.37819,71.157446 190.78981,69.945277 C 188.24622,69.554721 188.96615,66.910338 189.40107,65.120311 C 189.86793,61.568822 187.82757,57.942809 189.33271,54.485832 C 189.91734,52.614276 191.72191,51.225516 191.48816,49.073437 C 191.87524,46.889649 192.68666,44.641347 194.37056,43.128529 C 193.94983,41.365213 195.688,40.596015 195.9853,39.022361 C 195.08307,37.990175 193.36425,37.391301 191.86861,37.460917 C 189.87512,37.637576 189.25277,40.115453 187.51831,40.884174 C 186.50224,42.491625 185.98746,44.511778 186.76768,46.322174 C 187.09909,48.645275 186.61753,51.03048 185.90375,53.246372 C 184.5857,53.196195 183.26765,53.146018 181.9496,53.09584 z M 194.46243,70.082054 C 195.90614,71.739737 197.84087,72.77609 199.96652,73.18174 C 201.40693,74.26139 202.58015,75.63982 204.61006,75.618 C 205.93565,76.93735 207.91932,77.27958 209.73549,77.10728 C 211.35347,76.93294 214.05947,76.70584 215.00017,76.80384 C 214.23473,77.45962 213.55347,78.31144 212.40594,78.11567 C 210.07469,77.87745 207.89453,78.96634 205.58596,78.75413 C 203.54518,78.62074 201.53879,78.19769 199.61048,77.48142 C 197.72477,76.54559 197.13456,74.1514 195.06341,73.419625 C 193.48783,73.112129 190.82552,71.180658 190.85512,70.314508 C 192.05756,70.237023 193.25999,70.159539 194.46243,70.082054 z " style="fill:#d40000;fill-opacity:1;stroke:#a20000;stroke-opacity:1" id="path8032"/>
      <path d="M 341.22652,47.80827 C 341.15268,53.107266 338.40199,57.552606 334.74963,61.050007 C 333.21042,65.485676 331.53685,69.880927 328.17,73.31122 C 325.13246,77.32842 322.61113,81.69304 318.8513,85.12719 C 315.26069,89.05219 311.16172,92.49889 306.16341,94.47452 C 301.03233,97.04867 296.65239,101.01118 291.26044,103.06454 C 286.46997,106.81189 279.9337,106.48287 274.8596,109.61287 C 270.06677,111.68985 264.55058,110.1715 259.89314,112.64887 C 258.00611,114.30624 251.80384,112.90496 256.79325,111.67501 C 261.74014,109.26702 267.34436,109.54524 272.44676,107.96547 C 278.75385,104.42859 286.12981,103.09039 291.93931,98.60151 C 297.87515,94.70033 304.2776,91.56593 310.37284,87.96175 C 314.72826,83.96448 319.16144,79.89375 322.29008,74.81479 C 325.42104,70.482612 329.5924,66.508134 330.42654,60.973788 C 332.71792,57.558137 337.13039,55.305394 336.63538,50.506906 C 336.66558,47.686062 339.02554,47.229191 341.22652,47.80827 z M 326.09496,73.74942 C 322.16019,72.172048 319.1039,69.36108 315.38882,67.483609 C 313.16129,66.376186 313.43741,63.270719 315.41574,66.224832 C 319.59657,66.985649 322.42984,69.890463 326.14574,71.664326 C 327.72933,71.649927 326.17632,73.052525 326.09496,73.74942 z M 310.65341,90.59007 C 305.34373,90.66849 304.32502,85.10433 301.27387,82.40383 C 298.68057,81.99483 296.62629,76.67884 299.75517,80.91608 C 304.46269,81.14674 304.45753,87.25557 308.55094,88.43477 C 309.8982,89.23147 312.09892,88.62257 310.65341,90.59007 z M 292.28119,99.88766 C 291.39729,95.17622 286.42165,94.07915 284.583,90.20962 C 284.41461,88.23879 288.06731,93.39537 290.04958,93.49915 C 291.02931,95.23137 293.85292,97.99605 292.28119,99.88766 z M 275.82413,107.31801 C 275.05317,103.372 270.66748,100.72734 270.3208,96.9483 C 272.541,99.64986 276.93912,103.16368 276.04658,106.92193 L 275.92053,107.14636 L 275.82413,107.31801 z " style="fill:#d40000;fill-opacity:1;stroke:#a20000;stroke-opacity:1" id="path9145"/>
      <path d="M 202.17737,106.16042 C 203.31707,103.39448 205.19838,101.19093 207.03451,98.8953 C 208.15863,96.94022 210.61125,94.93846 211.65353,93.6503 C 212.31754,95.39563 209.46041,98.10486 208.65762,100.00602 C 206.82435,102.31549 204.91437,104.51324 203.79561,107.30141 C 203.2562,106.92108 202.71678,106.54075 202.17737,106.16042 z " style="fill:#d40000;fill-opacity:1;stroke:#a20000;stroke-opacity:1" id="path9157"/>
      <path d="M 220.87965,112.80305 C 223.01341,109.80654 225.03768,106.79689 227.14778,103.81975 C 228.47118,102.0812 229.43749,102.50201 227.95452,104.38246 C 226.16275,107.57145 224.31583,110.71807 222.09333,113.65879 C 221.68877,113.37354 221.28421,113.08829 220.87965,112.80305 z " style="fill:#d40000;fill-opacity:1;stroke:#a20000;stroke-opacity:1" id="path8052"/>
      <path d="M 317.80706,-1.52985 C 324.25505,-0.186245 328.77892,5.147512 332.80706,9.97015 C 334.84957,13.015443 337.32704,15.744523 339.5913,18.590649 C 341.19452,22.79508 341.67862,27.346931 342.97905,31.658104 C 343.84847,35.616421 344.80736,39.597953 345.18801,43.631053 C 344.99802,47.408756 347.23591,50.713122 347.4085,54.480748 C 349.45,61.998566 348.50871,69.829394 348.94239,77.49459 C 350.1091,81.94975 355.91783,80.37244 359.28058,80.09574 C 363.533,79.05511 366.9447,75.91385 369.97068,72.917496 C 373.49649,68.143058 377.95232,64.123711 381.04095,59.018156 C 383.61601,54.776799 387.50311,51.179353 388.38438,46.090538 C 389.83842,40.613384 389.5103,34.779337 387.38469,29.516775 C 386.71398,24.06437 381.55498,21.082486 379.56163,16.286294 C 378.1734,11.782769 373.19006,9.958663 370.02346,6.881642 C 362.93083,2.760196 354.63938,1.892477 346.80706,-0.02985 C 341.31484,-1.331186 335.72452,-2.121514 330.08042,-2.188053 C 327.82952,-2.441716 325.57325,-2.588658 323.30706,-2.52985" style="fill:#6c0300;fill-opacity:1;fill-rule:evenodd;stroke:#000000;stroke-width:1px;stroke-linecap:butt;stroke-linejoin:miter;stroke-opacity:1" id="path8090"/>
      <path d="M 155.30706,31.97015 L 141.80706,22.97015 L 150.30706,20.97015 L 142.30706,22.47015 L 142.80706,29.97015" style="fill:none;fill-rule:evenodd;stroke:#000000;stroke-width:1px;stroke-linecap:butt;stroke-linejoin:miter;stroke-opacity:1" id="path9072"/>
      <path d="M 204.82203,41.671108 C 204.92397,38.655001 204.46754,35.504835 205.66719,32.64383 C 205.23379,30.364812 206.68303,28.466759 208.00604,26.768125 C 209.58052,24.536614 212.20503,23.496354 214.35595,21.948723 C 216.8551,21.183743 219.46212,20.781522 221.99381,20.139609 C 223.38408,20.156306 225.52643,20.407028 224.86501,22.223537 C 224.79238,23.609451 225.03032,23.93732 223.64559,23.138076 C 221.80517,22.917634 219.83146,23.394463 217.97264,23.667526 C 215.94481,23.668145 214.34372,25.188664 212.59199,26.028639 C 210.84097,27.256869 209.47614,29.130295 208.60799,31.058139 C 208.86968,33.26348 207.51603,35.246579 207.74966,37.490282 C 207.33349,38.80222 208.88331,42.134084 206.65838,41.671107 C 206.04626,41.671108 205.43414,41.671108 204.82203,41.671108 z M 224.6061,20.485117 C 227.0433,20.473977 229.74691,20.533463 231.599,22.36362 C 232.96486,23.564999 235.4005,24.705987 234.61834,26.908262 C 233.90221,30.175381 234.43133,33.551591 234.27769,36.868617 C 234.40467,40.371106 233.52656,43.811 232.92692,47.241654 C 231.8446,49.101286 231.30933,51.167215 231.37045,53.33362 C 231.5249,55.557467 229.44005,56.813829 228.84503,58.800545 C 227.72526,60.964662 225.41093,62.038082 223.58529,63.497347 C 222.62447,65.613526 220.17493,65.916224 218.11553,65.739444 C 216.50715,65.112032 214.2198,67.332024 213.33982,66.410822 C 213.71383,64.982896 216.6841,65.038897 218.03698,64.145336 C 220.03624,63.626309 221.3804,62.150132 222.56721,60.598335 C 224.52953,59.234153 226.83213,57.914215 227.6099,55.487312 C 228.88647,53.629888 229.55739,51.607868 229.21129,49.310698 C 229.1198,47.335246 230.80304,45.853253 230.66589,43.829403 C 231.05467,41.194149 231.52236,38.55859 231.33693,35.886047 C 231.45603,33.286804 231.07962,30.645037 231.4868,28.076079 C 233.33866,26.126667 229.73634,24.994145 228.62282,23.908614 C 227.50771,22.818901 224.22694,24.521124 224.6061,22.447434 C 224.6061,21.793328 224.6061,21.139223 224.6061,20.485117 z M 232.12076,37.287735 C 235.04041,37.946186 238.05181,37.527931 240.99017,37.855709 C 242.11856,38.131254 244.52085,37.574524 244.86322,38.682274 C 242.67942,38.729952 240.52463,39.397563 238.3154,39.208392 C 236.42939,38.915796 233.0892,39.704121 232.1014,38.268406 C 232.10785,37.941516 232.1143,37.614625 232.12076,37.287735 z M 230.1061,48.727634 C 232.5138,49.023976 234.92537,49.244196 237.34962,49.323222 C 238.51138,49.757245 240.82726,49.620016 241.21496,50.625797 C 238.92603,50.353364 236.61249,50.821674 234.30131,50.657837 C 233.0391,50.087942 229.7741,51.190593 230.1061,49.204918 C 230.1061,49.045824 230.1061,48.886729 230.1061,48.727634 z " style="fill:#d40000;fill-opacity:1;stroke:#a20000;stroke-opacity:1" id="path9082"/>
      <path d="M 207.80706,40.47015 L 129.30706,84.97015" style="fill:none;fill-rule:evenodd;stroke:#000000;stroke-width:1px;stroke-linecap:butt;stroke-linejoin:miter;stroke-opacity:1" id="path9161"/>
      <path d="M 189.80706,35.47015 L 128.80706,60.970147" style="fill:none;fill-rule:evenodd;stroke:#000000;stroke-width:1px;stroke-linecap:butt;stroke-linejoin:miter;stroke-opacity:1" id="path9163"/>
      <path d="M 203.30706,19.47015 L 132.30706,8.97015" style="fill:none;fill-rule:evenodd;stroke:#000000;stroke-width:1px;stroke-linecap:butt;stroke-linejoin:miter;stroke-opacity:1" id="path9165"/>
      <path d="M 190.30706,97.97015 L 129.30706,126.97015" style="fill:#d40000;fill-rule:evenodd;stroke:#000000;stroke-width:1px;stroke-linecap:butt;stroke-linejoin:miter;stroke-opacity:1" id="path9167"/>
      <path d="M 227.80706,20.97015 L 131.30706,-17.52985" style="fill:none;fill-rule:evenodd;stroke:#000000;stroke-width:1px;stroke-linecap:butt;stroke-linejoin:miter;stroke-opacity:1" id="path9169"/>
      <path d="M 354.80706,8.97015 L 407.30706,-11.02985" style="fill:#aa0000;fill-rule:evenodd;stroke:#000000;stroke-width:1px;stroke-linecap:butt;stroke-linejoin:miter;stroke-opacity:1" id="path9175"/>
      <path d="M 331.47037,29.339069 C 330.49482,28.747931 329.49399,28.190693 328.52519,27.593809 C 327.6549,26.867052 326.50344,26.644487 325.48318,26.207708 C 324.35812,25.840912 323.27666,25.354825 322.27541,24.722414 C 321.86026,24.367387 321.31574,24.407648 320.81491,24.276145 C 320.28308,24.153396 319.76241,23.988453 319.23638,23.843934 C 318.53712,23.153475 317.55423,22.88895 316.66716,22.531062 C 316.28694,22.28117 315.31432,22.614897 315.30914,22.072867 C 315.25925,21.508056 316.21442,22.072357 316.57764,22.0118 C 317.40784,22.236249 318.2776,22.396167 319.14286,22.378015 C 319.69856,22.408109 320.22666,22.683469 320.77899,22.784495 C 321.78865,23.03142 322.87583,23.022211 323.82114,23.491997 C 324.54552,23.984884 325.4398,24.136968 326.23743,24.486488 C 327.11854,24.827343 328.06875,25.084083 328.77972,25.738578 C 329.70801,26.268897 330.62604,26.816847 331.54565,27.361996 C 331.52056,28.02102 331.49546,28.680045 331.47037,29.339069 z M 323.59967,25.143562 C 322.75845,26.038626 321.81533,26.83778 320.8441,27.585217 C 320.06063,27.884849 319.2835,28.844664 318.44837,28.491305 C 317.89333,28.373946 317.00012,28.724326 316.64088,28.462536 C 316.46156,27.863936 317.2367,28.067211 317.61206,27.961534 C 318.46268,28.00124 319.16015,27.486438 319.88212,27.120493 C 321.01521,26.584369 321.9043,25.683453 322.83113,24.862258 C 323.12214,24.677465 323.63947,23.781034 323.56073,24.539456 C 323.57371,24.740825 323.58669,24.942193 323.59967,25.143562 z " style="fill:#d40000;fill-opacity:1;stroke:#a20000;stroke-opacity:1" id="path9183"/>
      <path d="M 325.30706,24.47015 L 401.30706,28.97015" style="fill:none;fill-rule:evenodd;stroke:#000000;stroke-width:1px;stroke-linecap:butt;stroke-linejoin:miter;stroke-opacity:1" id="path9191"/>
      <path d="M 272.30706,48.970147 L 399.80706,61.970147" style="fill:none;fill-rule:evenodd;stroke:#000000;stroke-width:1px;stroke-linecap:butt;stroke-linejoin:miter;stroke-opacity:1" id="path9193"/>
      <path d="M 312.80706,85.970147 L 402.30706,92.970147" style="fill:none;fill-rule:evenodd;stroke:#000000;stroke-width:1px;stroke-linecap:butt;stroke-linejoin:miter;stroke-opacity:1" id="path9195"/>
      <text x="127.30706" y="-14.52985" style="font-size:12px;font-style:normal;font-weight:normal;text-align:end;line-height:125%;writing-mode:lr-tb;text-anchor:end;fill:#000000;fill-opacity:1;stroke:none;stroke-width:1px;stroke-linecap:butt;stroke-linejoin:miter;stroke-opacity:1;font-family:Bitstream Vera Sans" id="text9221" xml:space="preserve"><tspan x="127.30706" y="-14.52985" id="tspan9223">Artère gastrique gauche</tspan><tspan x="127.30706" y="0.47014999" id="tspan9225"/></text>
      <text x="124.30706" y="61.470146" style="font-size:12px;font-style:normal;font-weight:normal;text-align:end;line-height:125%;writing-mode:lr-tb;text-anchor:end;fill:#000000;fill-opacity:1;stroke:none;stroke-width:1px;stroke-linecap:butt;stroke-linejoin:miter;stroke-opacity:1;font-family:Bitstream Vera Sans" id="text9227" xml:space="preserve"><tspan x="124.30706" y="61.470146" id="tspan9229">Artère gastrique droite</tspan></text>
      <text x="123.80706" y="71.970146" style="font-size:12px;font-style:normal;font-weight:normal;text-align:end;line-height:125%;writing-mode:lr-tb;text-anchor:end;fill:#000000;fill-opacity:1;stroke:none;stroke-width:1px;stroke-linecap:butt;stroke-linejoin:miter;stroke-opacity:1;font-family:Bitstream Vera Sans" id="text9231" xml:space="preserve"><tspan x="127.62737" y="71.970146" id="tspan9233">           </tspan><tspan x="123.80706" y="86.970146" id="tspan9235">           Tronc coeliaque</tspan></text>
      <path d="M 176.67598,71.806827 C 176.1315,72.916617 175.63028,74.045527 175.12891,75.174467 C 174.74195,76.008217 174.43764,76.877627 174.12051,77.740117 C 173.78929,78.407907 173.43889,79.066297 173.08977,79.721417 C 173.08502,80.638667 172.59544,81.400097 172.31991,82.171397 C 172.24706,83.248157 171.69631,84.004077 171.20247,84.895717 C 171.10265,85.867617 171.04944,86.847987 170.99088,87.820407 C 170.74162,89.109147 169.87168,90.004067 169.10346,91.005117 C 168.27274,91.882817 167.39651,92.720927 166.52329,93.552647 L 166.03342,93.516767 C 166.9079,92.685477 167.78437,91.846467 168.61785,90.970377 C 169.38161,89.978057 170.24795,89.091057 170.49837,87.813197 C 170.55743,86.840877 170.61209,85.860257 170.71073,84.888127 C 170.67422,83.930407 170.31098,83.128347 170.84108,82.136937 C 170.88676,81.366077 170.79852,80.460977 171.1168,79.649777 C 171.46274,78.994397 171.77925,78.322667 172.14909,77.674927 C 172.47032,76.804777 172.77818,75.928087 173.16948,75.086697 C 173.67113,73.965237 174.18157,72.846997 174.69891,71.731557 L 176.67598,71.806827 z " style="fill:#d40000;fill-opacity:1;stroke:#a20000;stroke-opacity:1" id="path9241"/>
      <path d="M 177.80706,64.470147 L 129.80706,107.47015" style="fill:none;fill-rule:evenodd;stroke:#000000;stroke-width:1px;stroke-linecap:butt;stroke-linejoin:miter;stroke-opacity:1" id="path9243"/>
      <text x="126.80706" y="108.97015" style="font-size:12px;font-style:normal;font-weight:normal;text-align:end;line-height:125%;writing-mode:lr-tb;text-anchor:end;fill:#000000;fill-opacity:1;stroke:none;stroke-width:1px;stroke-linecap:butt;stroke-linejoin:miter;stroke-opacity:1;font-family:Bitstream Vera Sans" id="text9245" xml:space="preserve"><tspan x="126.80706" y="108.97015" id="tspan9247">Artère gastro-duodénale</tspan></text>
      <text x="126.30706" y="130.47015" style="font-size:12px;font-style:normal;font-weight:normal;text-align:end;line-height:125%;writing-mode:lr-tb;text-anchor:end;fill:#000000;fill-opacity:1;stroke:none;stroke-width:1px;stroke-linecap:butt;stroke-linejoin:miter;stroke-opacity:1;font-family:Bitstream Vera Sans" id="text9249" xml:space="preserve"><tspan x="126.30706" y="130.47015" id="tspan9251">Artère gastro-instestinale droite</tspan></text>
      <text x="408.80707" y="-9.52985" style="font-size:12px;font-style:normal;font-weight:normal;fill:#000000;fill-opacity:1;stroke:none;stroke-width:1px;stroke-linecap:butt;stroke-linejoin:miter;stroke-opacity:1;font-family:Bitstream Vera Sans" id="text9253" xml:space="preserve"><tspan x="408.80707" y="-9.52985" id="tspan9255">Rate</tspan></text>
      <text x="405.80707" y="30.97015" style="font-size:12px;font-style:normal;font-weight:normal;fill:#000000;fill-opacity:1;stroke:none;stroke-width:1px;stroke-linecap:butt;stroke-linejoin:miter;stroke-opacity:1;font-family:Bitstream Vera Sans" id="text9257" xml:space="preserve"><tspan x="405.80707" y="30.97015" id="tspan9259">Petites artères gastriques</tspan></text>
      <text x="400.80707" y="63.47015" style="font-size:12px;font-style:normal;font-weight:normal;fill:#000000;fill-opacity:1;stroke:none;stroke-width:1px;stroke-linecap:butt;stroke-linejoin:miter;stroke-opacity:1;font-family:Bitstream Vera Sans" id="text9261" xml:space="preserve"><tspan x="400.80707" y="63.47015" id="tspan9263">Artère splénique</tspan></text>
      <text x="404.30707" y="96.970146" style="font-size:12px;font-style:normal;font-weight:normal;fill:#000000;fill-opacity:1;stroke:none;stroke-width:1px;stroke-linecap:butt;stroke-linejoin:miter;stroke-opacity:1;font-family:Bitstream Vera Sans" id="text9265" xml:space="preserve"><tspan x="404.30707" y="96.970146" id="tspan9267">Artère gastro-instestinale gauche</tspan></text>
      <text x="134.30707" y="28.47015" style="font-size:12px;font-style:normal;font-weight:normal;text-align:end;line-height:125%;writing-mode:lr-tb;text-anchor:end;fill:#000000;fill-opacity:1;stroke:none;stroke-width:1px;stroke-linecap:butt;stroke-linejoin:miter;stroke-opacity:1;font-family:Bitstream Vera Sans" id="text9269" xml:space="preserve"><tspan x="134.30707" y="28.47015" id="tspan9271">Vers le foie</tspan></text>
      <rect width="629" height="197" x="-32" y="-4" transform="translate(-23.192941,-31.892033)" style="opacity:1;fill:none;fill-opacity:1;fill-rule:evenodd;stroke:none;stroke-width:150.77600098;stroke-linecap:butt;stroke-miterlimit:4;stroke-dasharray:none;stroke-dashoffset:0;stroke-opacity:1" id="rect2228"/>
      <text x="91.921646" y="9.5975513" style="font-size:12px;font-style:normal;font-weight:normal;fill:#000000;fill-opacity:1;stroke:none;stroke-width:1px;stroke-linecap:butt;stroke-linejoin:miter;stroke-opacity:1;font-family:Bitstream Vera Sans" id="text2216" xml:space="preserve"><tspan x="91.921646" y="9.5975513" id="tspan2218">Aorte</tspan></text>
    </g>
  </g>
</svg>
